<svg width="21" height="16" viewBox="0 0 21 16" fill="none" xmlns="http://www.w3.org/2000/svg">
<path d="M16.127 1.49198C13.8836 1.49198 12.1905 2.97346 11.5132 5.3015C10.455 3.65071 9.60846 1.78828 9.14286 0.17981H6.77249V6.40203C6.77249 7.62954 5.75661 8.64542 4.5291 8.64542C3.30159 8.64542 2.28571 7.62954 2.28571 6.40203V0.222137H0V6.44436C0 9.02637 2.07407 11.1004 4.61376 11.1004C7.15344 11.1004 9.22751 9.02637 9.22751 6.44436V5.38616C9.69312 6.31737 10.2857 7.33325 10.9206 8.22214L9.43915 15.1216H11.8519L12.8677 10.0846C13.7989 10.6772 14.8571 11.0158 16.127 11.0158C18.709 11.0158 20.8254 8.89939 20.8254 6.19039C20.8254 3.60838 18.709 1.49198 16.127 1.49198ZM16.127 8.64542C15.1958 8.64542 14.2222 8.22214 13.4603 7.58722L13.7143 6.656V6.61367C13.8836 5.5978 14.4339 3.90468 16.1693 3.90468C17.4815 3.90468 18.5397 4.96288 18.5397 6.27505C18.4974 7.58722 17.3545 8.64542 16.127 8.64542Z" fill="white"/>
</svg>
